<svg width="82" height="82" viewBox="0 0 82 82" fill="none" xmlns="http://www.w3.org/2000/svg">
<g id="Group 1">
<circle id="Ellipse 52" cx="41" cy="41" r="41" fill="#F3EBE4"/>
<g id="Group">
<path id="Vector" d="M42.7562 52.5728V54.5552C42.7562 54.9708 40.454 55.8021 37.5844 56.1938V57.6167C37.5844 58.7437 36.6652 59.663 35.5381 59.663H33.4918C32.3647 59.663 31.4454 58.7437 31.4454 57.6167V56.1698C28.6238 55.7702 26.3936 54.9548 26.3936 54.5472V27.7772C26.3936 26.6661 42.7562 26.6661 42.7562 27.7772V30.0873C43.4436 29.9594 44.147 29.8874 44.8584 29.8874C45.5299 29.8874 46.2013 29.9514 46.8488 30.0713V26.9458C46.8488 23.5726 44.0831 20.8069 40.7098 20.8069H28.4319C25.0587 20.8069 22.293 23.5726 22.293 26.9458V55.5863C22.293 58.9596 25.0587 61.7253 28.4319 61.7253H40.7098C44.0831 61.7253 46.8488 58.9596 46.8488 55.5863V52.5888C46.1933 52.7007 45.5379 52.7806 44.8584 52.7806C44.139 52.7726 43.4356 52.7007 42.7562 52.5728ZM31.5014 22.8532H37.6404C38.1999 22.8532 38.6635 23.3168 38.6635 23.8764C38.6635 24.4359 38.1999 24.8995 37.6404 24.8995H31.5014C30.9419 24.8995 30.4782 24.4359 30.4782 23.8764C30.4782 23.3168 30.9419 22.8532 31.5014 22.8532ZM51.501 34.6835C47.832 31.0145 41.8769 31.0145 38.2079 34.6835C34.5389 38.3525 34.5389 44.3076 38.2079 47.9766C41.8769 51.6456 47.832 51.6456 51.501 47.9766C55.17 44.3076 55.17 38.3525 51.501 34.6835ZM48.9511 45.4267C46.6889 47.6888 43.0119 47.6888 40.7578 45.4267C38.4957 43.1645 38.4957 39.4875 40.7578 37.2334C43.0199 34.9713 46.6969 34.9713 48.9511 37.2334C51.2132 39.4875 51.2132 43.1645 48.9511 45.4267ZM59.3585 55.8341C58.5032 56.6894 57.0964 56.6894 56.2411 55.8341L51.9886 51.5816C51.9006 51.4937 51.7648 51.1739 51.7648 50.9421C51.7648 50.6544 51.8847 50.3986 52.0765 50.2147C52.0765 50.2067 52.668 49.6872 52.9398 49.4154C53.1956 49.1596 53.6912 48.6081 53.7072 48.6001C53.891 48.3842 54.1628 48.2404 54.4665 48.2404C54.6983 48.2404 54.9621 48.3203 55.106 48.4642L59.3585 52.7167C60.2138 53.58 60.2138 54.9788 59.3585 55.8341Z" fill="#B39B87"/>
</g>
</g>
</svg>
