<svg width="55" height="54" viewBox="0 0 55 54" fill="none" xmlns="http://www.w3.org/2000/svg">
<path d="M47.0157 22.3218H46.882V19.047C46.882 8.52766 38.3545 0 27.835 0C17.3155 0 8.78796 8.52766 8.78796 19.047V22.3218H7.98603C5.0454 22.3218 2.77316 24.9282 2.77316 27.9357V36.2896C2.6991 39.2045 5.00217 41.6276 7.91708 41.7017C7.9401 41.7023 7.963 41.7027 7.98603 41.7029H12.9315C13.632 41.6701 14.1733 41.0754 14.1403 40.3749C14.1391 40.3497 14.1372 40.3245 14.1345 40.2994V23.9256C14.1345 23.1237 13.6667 22.3217 12.9315 22.3217H11.4612V19.0469C11.4612 10.004 18.7921 2.67314 27.835 2.67314C36.8779 2.67314 44.2087 10.004 44.2087 19.0469V22.3217H42.7384C42.0033 22.3217 41.5355 23.1236 41.5355 23.9256V40.2994C41.4609 40.9967 41.9657 41.6225 42.663 41.6971C42.688 41.6998 42.7132 41.7017 42.7384 41.7028H44.2755L44.1418 41.9033C43.1528 43.2177 41.8704 44.2829 40.3968 45.0139C38.9232 45.7449 37.2992 46.1215 35.6542 46.1136C34.9241 42.5333 31.4295 40.2227 27.8492 40.953C24.7874 41.5773 22.5799 44.2588 22.5552 47.3835C22.5918 51.0484 25.5734 54 29.2384 53.9998C31.0527 53.9704 32.782 53.2258 34.0502 51.928C34.9059 51.0517 35.4666 49.9302 35.6542 48.72C37.7142 48.7278 39.7475 48.2546 41.5923 47.338C43.4371 46.4214 45.0424 45.0868 46.2804 43.4404L47.5503 41.569C50.424 41.3686 52.2284 39.5641 52.2284 36.9576V28.6037C52.2286 25.7302 50.09 22.3218 47.0157 22.3218ZM11.4612 39.0297H7.98603C6.54693 38.9946 5.4087 37.7997 5.44375 36.3606C5.44439 36.337 5.44528 36.3133 5.44643 36.2895V27.9356C5.44643 26.3985 6.51572 24.9949 7.98603 24.9949H11.4612V39.0297ZM32.1122 50.0569C31.7458 50.4542 31.3017 50.7719 30.8073 50.9904C30.313 51.2088 29.779 51.3233 29.2385 51.3268C27.0641 51.2922 25.2996 49.5571 25.2286 47.3836C25.2277 45.2059 26.9924 43.4398 29.1701 43.439C31.3478 43.4381 33.1139 45.2027 33.1148 47.3804V47.3836C33.1423 47.8744 33.0673 48.3655 32.8948 48.8257C32.7222 49.286 32.4557 49.7052 32.1122 50.0569ZM49.5553 36.9579C49.5553 38.7623 47.8176 39.0297 47.0157 39.0297H44.2087V24.9951H47.0157C48.486 24.9951 49.5553 27.0669 49.5553 28.6039V36.9579Z" fill="#B39B87"/>
</svg>
