<svg width="55" height="54" viewBox="0 0 55 54" fill="none" xmlns="http://www.w3.org/2000/svg">
<path d="M21.6555 41.5412C21.6519 41.4639 21.6501 41.3864 21.6501 41.309C21.6501 37.0326 27.1666 33.5658 27.1666 33.5658C27.1666 33.5658 32.6832 37.0326 32.6832 41.309C32.6832 41.3784 32.6817 41.4475 32.6788 41.5165" stroke="#B39B87" stroke-width="2" stroke-miterlimit="10" stroke-linecap="round" stroke-linejoin="round"/>
<path d="M18.6573 49.3365C21.6994 52.3604 27.1354 51.8596 27.1354 51.8596C27.1354 51.8596 27.6394 46.456 24.5973 43.4321C21.5553 40.4082 16.1192 40.9091 16.1192 40.9091C16.1192 40.9091 15.6153 46.3127 18.6573 49.3365Z" stroke="#B39B87" stroke-width="2" stroke-miterlimit="10" stroke-linecap="round" stroke-linejoin="round"/>
<path d="M35.6762 49.3365C32.6341 52.3604 27.1981 51.8596 27.1981 51.8596C27.1981 51.8596 26.6941 46.456 29.7362 43.4321C32.7782 40.4082 38.2143 40.9091 38.2143 40.9091C38.2143 40.9091 38.7182 46.3127 35.6762 49.3365Z" stroke="#B39B87" stroke-width="2" stroke-miterlimit="10" stroke-linecap="round" stroke-linejoin="round"/>
<path d="M27.1668 24.5749C33.6773 24.5749 38.9551 19.5458 38.9551 13.3421C38.9551 7.13844 33.6773 2.10938 27.1668 2.10938C20.6562 2.10938 15.3784 7.13844 15.3784 13.3421C15.3784 19.5458 20.6562 24.5749 27.1668 24.5749Z" stroke="#B39B87" stroke-width="2" stroke-miterlimit="10" stroke-linecap="round" stroke-linejoin="round"/>
<path d="M46.4199 41.3437V40.4863C46.4199 31.6987 39.2962 24.575 30.5085 24.575H23.825C15.0374 24.575 7.91364 31.6986 7.91364 40.4863V51.8906H46.4197" stroke="#B39B87" stroke-width="2" stroke-miterlimit="10" stroke-linecap="round" stroke-linejoin="round"/>
</svg>
