<svg width="55" height="54" viewBox="0 0 55 54" fill="none" xmlns="http://www.w3.org/2000/svg">
<g clip-path="url(#clip0_3446_1268)">
<path fill-rule="evenodd" clip-rule="evenodd" d="M19.6255 13.8154C22.8321 10.9803 26.9659 9.41755 31.2461 9.42227C40.9465 9.42227 48.8236 17.2994 48.8236 26.9998C48.8236 36.7002 40.9465 44.5773 31.2461 44.5773C26.9659 44.5821 22.8321 43.0193 19.6255 40.1842C19.2629 39.874 18.7928 39.7188 18.3167 39.752C17.8407 39.7853 17.3968 40.0044 17.0808 40.3621C16.7648 40.7197 16.6021 41.1872 16.6278 41.6638C16.6535 42.1403 16.8654 42.5877 17.218 42.9093C21.088 46.3334 26.0787 48.2207 31.2461 48.2141C42.9539 48.2141 52.4604 38.7077 52.4604 26.9998C52.4604 15.292 42.9539 5.78554 31.2461 5.78554C26.0787 5.77896 21.088 7.6662 17.218 11.0903C17.0347 11.2471 16.8844 11.4388 16.7759 11.6543C16.6674 11.8698 16.6029 12.1047 16.586 12.3453C16.5692 12.586 16.6004 12.8276 16.6779 13.056C16.7554 13.2845 16.8775 13.4952 17.0372 13.676C17.197 13.8568 17.391 14.004 17.6082 14.1091C17.8254 14.2141 18.0613 14.2749 18.3022 14.2879C18.5431 14.3008 18.7841 14.2657 19.0113 14.1846C19.2385 14.1035 19.4473 13.978 19.6255 13.8154Z" fill="#B39B87"/>
<path fill-rule="evenodd" clip-rule="evenodd" d="M28.4575 16.3322V26.0301C28.4575 26.5126 28.6491 26.9757 28.9909 27.3151L36.7493 35.0735C37.0901 35.4143 37.5523 35.6057 38.0343 35.6057C38.5162 35.6057 38.9784 35.4143 39.3192 35.0735C39.66 34.7327 39.8515 34.2704 39.8515 33.7885C39.8515 33.3065 39.66 32.8443 39.3192 32.5035L32.0943 25.2761V16.3322C32.0943 15.8499 31.9027 15.3874 31.5617 15.0464C31.2207 14.7054 30.7582 14.5138 30.2759 14.5138C29.7936 14.5138 29.3311 14.7054 28.9901 15.0464C28.6491 15.3874 28.4575 15.8499 28.4575 16.3322ZM2.15184 20.3326H16.6988C17.181 20.3326 17.6435 20.141 17.9845 19.8C18.3256 19.459 18.5171 18.9965 18.5171 18.5142C18.5171 18.0319 18.3256 17.5694 17.9845 17.2284C17.6435 16.8874 17.181 16.6958 16.6988 16.6958H2.15184C1.66958 16.6958 1.20707 16.8874 0.866057 17.2284C0.525047 17.5694 0.333469 18.0319 0.333469 18.5142C0.333469 18.9965 0.525047 19.459 0.866057 19.8C1.20707 20.141 1.66958 20.3326 2.15184 20.3326ZM4.57632 28.8183H19.1233C19.6055 28.8183 20.068 28.6267 20.409 28.2857C20.75 27.9447 20.9416 27.4822 20.9416 26.9999C20.9416 26.5176 20.75 26.0551 20.409 25.7141C20.068 25.3731 19.6055 25.1815 19.1233 25.1815H4.57632C4.09406 25.1815 3.63155 25.3731 3.29054 25.7141C2.94954 26.0551 2.75796 26.5176 2.75796 26.9999C2.75796 27.4822 2.94954 27.9447 3.29054 28.2857C3.63155 28.6267 4.09406 28.8183 4.57632 28.8183ZM7.00081 37.304H21.5477C22.03 37.304 22.4925 37.1124 22.8335 36.7714C23.1745 36.4304 23.3661 35.9679 23.3661 35.4856C23.3661 35.0034 23.1745 34.5409 22.8335 34.1998C22.4925 33.8588 22.03 33.6673 21.5477 33.6673H7.00081C6.51855 33.6673 6.05604 33.8588 5.71503 34.1998C5.37402 34.5409 5.18245 35.0034 5.18245 35.4856C5.18245 35.9679 5.37402 36.4304 5.71503 36.7714C6.05604 37.1124 6.51855 37.304 7.00081 37.304Z" fill="#B39B87"/>
</g>
<defs>
<clipPath id="clip0_3446_1268">
<rect width="54" height="54" fill="white" transform="translate(0.333313)"/>
</clipPath>
</defs>
</svg>
